<svg width="60" height="24" viewBox="0 0 60 24" fill="none" xmlns="http://www.w3.org/2000/svg">
<g clip-path="url(#clip0_854_5623)">
<path d="M53.0377 6.22177C53.1551 6.471 53.2739 6.72149 53.2739 6.72149C53.103 6.38026 52.9359 6.04277 52.7932 5.72656C52.7932 5.72656 52.9162 5.97359 53.0377 6.22177C52.9162 5.97359 53.1551 6.471 53.0377 6.22177Z" fill="#36D78E"/>
<path d="M55.349 10.2852C55.3783 10.3186 55.4207 10.3874 55.4888 10.5135C55.4383 10.4444 55.3937 10.3636 55.349 10.2852Z" fill="#36D78E"/>
<path d="M36.3734 17.0206L36.362 16.9121C36.4 16.9891 36.3975 17.019 36.3734 17.0206Z" fill="#36D78E"/>
<path d="M51.8222 4.41797L51.855 4.46237C51.9892 4.66533 51.9351 4.58774 51.8222 4.41797Z" fill="#36D78E"/>
<path d="M51.8594 4.03416C51.9508 4.20559 52.0574 4.36672 52.1749 4.52344C52.0301 4.38019 51.8797 4.24395 51.753 4.08571C51.4117 3.72889 51.0576 4.32206 50.9115 4.61252C50.92 4.66329 51.0298 4.50012 51.037 4.48956C51.1336 4.35597 51.2313 4.19598 51.381 4.1015C51.4755 4.04594 51.5656 4.06352 51.6243 4.12805C51.7037 4.23777 51.7661 4.33849 51.8228 4.41858L51.6724 4.21985C51.6809 4.24058 51.688 4.26005 51.6952 4.27953C52.3113 5.13862 52.8703 6.05218 53.3864 6.99907C53.3964 7.01384 53.4065 7.02861 53.4154 7.03974L53.2715 6.72229C53.6563 7.49157 54.048 8.25747 54.4151 9.03694L54.418 9.00218C54.4419 9.06551 54.4635 9.12394 54.4823 9.18227C54.6585 9.55612 54.8292 9.93464 54.9959 10.3117C54.9851 10.1912 55.0289 10.2288 55.2223 10.6993C55.2347 10.5965 55.1808 10.484 55.15 10.394C55.086 10.2044 55.0112 10.019 54.9323 9.83488C54.7176 9.33111 54.4825 8.83744 54.2241 8.35616C54.3772 8.6475 54.5219 9.00824 54.7682 9.24277C54.831 9.30384 54.8027 9.1863 54.7946 9.15838C54.7319 8.9399 54.6285 8.73442 54.5372 8.53055C54.8048 8.79827 55.0181 9.67327 55.347 10.2856C55.2631 10.1866 55.3149 10.4095 55.2602 10.3787C55.4356 10.3368 56.2739 12.732 56.1767 12.8175L55.769 11.5885C55.6724 11.567 55.8362 12.1339 55.9166 12.4695C56.5877 14.0971 57.2411 15.7326 57.7367 17.4321C57.9672 18.2212 58.1837 19.0219 58.3261 19.8403C58.4589 20.5996 58.502 21.3964 58.3043 22.2018C58.3527 22.1939 58.3865 22.1218 58.4264 22.0955C58.5061 22.0431 58.468 22.3085 58.4674 22.3228C58.3859 22.6637 57.9812 23.9627 57.4181 23.5152C57.4168 23.5141 57.4156 23.5128 57.4143 23.5115C56.6871 23.5245 56.0933 23.047 55.5565 22.7326C54.8036 22.2905 53.9277 21.9715 53.1139 21.6077C51.3433 20.8211 49.5108 20.1392 47.579 19.6209C47.5674 19.6422 47.623 19.6838 47.7683 19.7525C46.749 19.5089 47.2202 19.5771 47.3717 19.5643C47.101 19.4936 46.8288 19.424 46.555 19.3603C46.2999 19.2997 46.1906 19.1385 46.1405 18.9073C46.1212 18.8886 46.1021 18.8698 46.0914 18.8995C46.0853 18.9161 46.0824 18.9533 46.0929 19.0185C46.1076 19.0827 46.1297 19.1892 46.2263 19.3032C46.0027 19.0983 45.8725 18.5566 46.1231 18.2577C46.1742 17.7549 46.31 17.207 46.5793 16.7237C46.6431 16.6082 46.7415 16.4315 46.8868 16.3777C46.9873 16.3404 47.1101 16.4023 47.1987 16.4235C47.3732 16.4656 47.5463 16.509 47.7194 16.5523C47.8802 16.5711 48.0422 16.5936 48.209 16.5983C49.0481 16.8391 49.4765 17.0032 49.7105 17.1207C50.1835 17.2706 50.6522 17.4289 51.1125 17.5964C50.9044 17.4966 50.7849 17.4179 50.8564 17.3723C51.706 17.8035 52.5997 18.1725 53.4777 18.5637C52.0076 16.6641 50.3544 14.8892 48.5956 13.2114C47.7028 12.3582 46.7697 11.5385 45.7782 10.7744C44.8345 10.0468 43.8173 9.32024 42.6129 8.90914C42.6072 8.94859 42.5962 8.98785 42.5931 9.02739C42.3323 10.644 42.5561 12.2367 42.7473 13.7802C42.951 15.4058 43.2909 16.9989 43.369 18.655C43.3693 18.6502 43.3682 18.6466 43.3696 18.643C43.4608 19.3468 43.4182 19.5904 43.3774 19.7631C43.3666 20.1053 43.3438 20.4481 43.2607 20.7948C43.3941 20.4895 43.4988 20.2313 43.5575 19.9209C43.5062 20.431 43.362 20.9257 43.0582 21.4029C42.9244 21.7154 42.7486 22.0145 42.5313 22.2832C42.5058 22.3484 42.5716 22.3099 42.5615 22.3552C42.3681 22.5671 42.1451 22.7527 41.8902 22.9024C41.0816 23.5013 40.0099 23.6667 39.1701 23.3802C39.0344 23.3658 38.894 23.2768 38.7855 23.2213C38.5843 23.1181 38.3943 23.0009 38.2114 22.8756C37.8484 22.6201 37.5231 22.3287 37.2018 22.0339C36.4979 21.3844 35.7926 20.7337 35.1068 20.0668C34.9308 19.9357 34.8101 19.8557 34.7547 19.8394C34.7474 19.7923 34.7132 19.719 34.6583 19.6281C33.6356 18.6286 32.5887 17.6583 31.4994 16.7165C30.9994 16.5104 32.3814 17.6042 32.892 18.2156C32.477 17.8347 32.0497 17.4592 31.6611 17.0538C31.3148 16.692 30.996 16.3096 30.6469 15.9502C30.3353 15.682 29.942 15.2922 29.5578 14.911C28.9985 14.4373 28.4281 13.9727 27.8453 13.5184C27.8825 13.5546 27.9184 13.5896 27.9542 13.6268C27.6483 13.3793 27.3323 13.1497 26.9701 12.9675C26.6104 12.7927 26.3156 12.536 26.0201 12.2938C26.2225 12.4006 26.4866 12.5349 26.7693 12.7021C26.0569 12.1845 25.3375 11.675 24.603 11.1783C24.3751 11.0418 24.2568 10.9992 24.3756 11.1547C23.7242 10.7113 23.2679 10.3601 23.1199 10.1988C22.7365 9.95097 22.3491 9.70668 21.9587 9.4647C22.3791 9.84591 23.4207 10.5337 22.2162 9.87503L21.229 9.10508C21.0034 9.0383 19.2549 8.01815 19.2465 8.18247C18.6386 7.81391 18.5764 7.7084 18.0916 7.39702C17.5702 7.19009 17.1801 7.03824 16.6232 6.63182C18.0619 7.34311 19.5049 8.04374 20.8841 8.83225C20.8755 8.81393 20.8341 8.78364 20.7782 8.74683C18.894 7.62221 16.9567 6.55098 14.9623 5.56428C14.7414 5.51447 15.3448 5.8937 15.4074 5.98961C13.9402 5.32297 13.9948 5.11101 12.6629 4.5885C14.5876 5.57998 11.9022 4.32392 11.1753 4.14704C12.0679 4.2324 12.8955 4.61468 13.6589 4.93942C11.5388 3.95792 9.32236 3.10041 6.97632 2.49428C5.80723 2.19255 4.60735 1.95343 3.37757 1.79017C2.7679 1.70992 2.13009 1.69477 1.52346 1.60741C1.06419 1.54084 1.35722 1.06329 1.58386 0.826117C1.99484 0.403157 2.67691 0.0413686 3.25954 0.00532006C3.64799 -0.0195121 4.0444 0.0484594 4.41938 0.0880393C4.85298 0.132076 5.28343 0.185612 5.70808 0.248565C5.73759 0.247193 5.75107 0.242864 5.74467 0.236632C5.77625 0.247352 5.81451 0.25951 5.85268 0.271664C6.61571 0.38853 7.36684 0.531412 8.10488 0.701472C7.93481 0.61861 7.65958 0.528458 7.20011 0.434249C8.45103 0.573028 9.6572 0.880861 10.8005 1.25497C11.8884 1.61273 12.9874 2.02134 13.927 2.59498C13.9598 2.60934 13.994 2.62255 14.0294 2.63701C14.0861 2.65462 14.3754 2.79094 14.4509 2.74431C14.4715 2.73182 14.2081 2.5808 14.1924 2.57305C13.994 2.46756 13.7925 2.36918 13.5883 2.27311C13.1694 2.07578 12.7433 1.89142 12.3272 1.68939C14.6142 2.48811 16.7741 3.47581 18.8743 4.55033C20.9261 5.60033 22.9184 6.72755 24.8418 7.93526C25.0798 8.08419 25.315 8.23541 25.5517 8.38549C25.484 8.59219 25.9311 8.78691 26.4586 9.31486L26.896 9.51763C26.748 9.44877 26.9377 9.6657 26.7997 9.64403C28.8444 11.0422 30.7969 12.5357 32.6462 14.1314C32.4122 13.7963 32.1491 13.4831 31.8545 13.1917C33.4801 14.7398 35.2435 16.1593 36.783 17.7813C36.6995 17.6102 36.5483 17.4631 36.4236 17.3193C36.1895 17.0492 35.9443 16.7859 35.7005 16.5262C35.2471 16.0429 34.7925 15.5584 34.3032 15.105C34.7341 15.4867 35.1358 15.8972 35.5447 16.2973C35.7203 16.4681 35.8945 16.6399 36.0758 16.8037C36.1311 16.8525 36.277 17.0318 36.3791 17.0186L36.4022 17.2561C37.6325 18.4623 36.3476 17.0054 36.8291 17.3311C37.2918 17.7812 37.8188 18.231 38.1628 18.7705C38.2028 18.8344 38.2543 18.9119 38.248 18.9958C38.2457 19.0161 38.2381 19.0363 38.2278 19.0587C38.1375 19.2334 38.2611 19.3735 38.3529 19.503C38.7203 19.8727 39.1213 20.3 39.5636 20.6976C39.9704 21.0231 40.3484 21.3632 40.8306 21.6096C40.8383 21.557 40.8432 21.5043 40.8508 21.4517C40.7842 21.5719 40.7007 21.1834 40.6917 21.1445C40.9181 20.8197 40.8668 20.3372 40.8423 20.0084C40.8229 19.7445 40.7821 19.4848 40.7451 19.2264C40.6456 18.562 40.5433 17.9 40.4544 17.2335C40.3541 17.206 40.5104 18.4131 40.407 18.5801C40.3724 17.8663 40.273 17.1647 40.202 16.4581C40.1653 16.1023 40.1341 15.7444 40.1202 15.3835C40.1131 15.1765 40.0733 14.9228 40.1532 14.7105C40.0425 13.7803 39.9034 12.8549 39.8533 11.9112C39.8057 11.0024 39.8576 10.0478 40.2302 9.12239C40.1393 9.33909 40.0604 9.55741 39.9882 9.77716C39.9604 9.86273 39.9227 10.0885 39.8206 10.1318C39.6036 10.2383 39.5813 10.6317 39.5459 10.8022C39.7057 9.97753 39.9262 8.98437 40.6367 8.30517C41.4015 7.5762 42.5855 7.18995 43.5887 7.1278C43.8362 7.11845 44.0686 7.14943 44.2895 7.20163C45.3383 7.37899 46.1986 7.96787 46.9911 8.51353C47.0191 8.48326 47.0058 8.42031 46.9446 8.2908C47.4884 8.62708 48.0881 8.97012 48.4606 9.46741C48.7776 9.89067 49.2669 10.2214 49.6782 10.5639C49.353 10.3002 49.0251 10.0364 48.6956 9.77844C48.72 9.80212 48.7445 9.82341 48.7688 9.84709C49.7792 10.6695 50.7255 11.5522 51.6372 12.4637C51.6237 12.3755 51.539 12.2332 51.819 12.523C52.1666 13.1035 52.7205 13.5771 53.2144 14.0498C53.7058 14.5176 54.2123 14.9751 54.6636 15.474C54.4925 15.1051 54.312 14.7071 54.131 14.2886C54.0797 13.9936 53.9381 13.7135 53.8283 13.4417C53.6277 12.9516 53.4163 12.466 53.2022 11.9803C52.9905 11.4995 52.768 11.0231 52.5481 10.5467C52.4125 10.2524 52.2582 9.95982 52.1555 9.64741C52.3957 10.1785 52.6128 10.6247 52.9565 11.2663L53.0563 11.0884C52.4834 9.90887 52.8898 11.0789 52.4191 9.91379C52.7306 10.0016 53.2212 11.5388 53.6101 12.3695C53.5201 12.0419 53.3722 11.6006 53.1504 11.0749C53.2851 11.3584 53.4198 11.6419 53.553 11.9289C53.3896 11.5675 53.2247 11.2097 53.0545 10.8516C53.0874 10.9261 53.1202 11.0005 53.1504 11.0749C52.8416 10.4296 52.5356 9.7845 52.1927 9.15608C52.1947 9.23305 52.1523 9.22435 52.0124 9.03081C51.5958 8.37817 51.1792 7.72553 50.857 7.01973C50.6284 6.6825 50.6219 6.21607 50.692 5.76674C50.6721 5.5774 50.6346 5.42589 50.666 5.22393C50.7361 4.89956 50.8821 4.54902 51.0833 4.25208C51.1471 4.1666 51.208 4.08583 51.2978 4.01808C51.1226 4.14531 51.004 4.325 50.9005 4.49439C50.7653 4.71795 50.6073 4.97434 50.5729 5.21585L50.4892 5.38955C50.4947 5.32485 50.4998 5.26977 50.509 5.21121C50.5812 4.86889 50.7053 4.49956 50.9535 4.19585C51.1805 3.91905 51.5736 3.69372 51.8275 3.96816C51.8427 3.98792 51.8641 4.01871 51.8715 4.03339C51.8641 4.01871 51.8788 4.04806 51.8715 4.03339L51.8594 4.03416ZM55.4351 16.2616C55.4351 16.2616 55.4415 16.2679 55.4466 16.2728C55.3729 16.0912 55.3008 15.9061 55.2245 15.7243C55.2183 15.7133 55.212 15.7047 55.2071 15.6949C55.2984 15.9613 55.3725 16.1332 55.4364 16.2605C55.3712 16.132 55.4403 16.2642 55.4364 16.2605L55.4351 16.2616ZM14.0597 5.21662C14.7623 5.55486 14.5263 5.3928 14.893 5.52941C14.5857 5.37805 14.2755 5.22899 13.9626 5.08225L14.0583 5.21777L14.0597 5.21662ZM39.9899 10.5715C39.9253 11.2012 39.9545 11.8247 40.0124 12.4359C39.9608 11.7732 39.9472 11.0974 40.0422 10.4123C40.0409 10.3185 40.0473 10.2022 40.0605 10.05C40.0605 10.05 40.0181 10.2589 39.9887 10.5702C39.9565 10.8815 40.0195 10.2577 39.9887 10.5702L39.9899 10.5715ZM55.0085 15.5918C55.1938 15.9395 55.2354 15.8749 55.1895 15.6678C55.1759 15.6422 55.1712 15.6275 55.1805 15.6291C55.1781 15.6242 55.1783 15.6193 55.1772 15.6133C54.9432 15.0608 54.6957 14.5126 54.4522 13.9658C54.6712 14.4937 54.8832 15.0275 55.0085 15.5918C54.8964 15.0929 55.1938 15.9395 55.0085 15.5918Z" fill="#36D78E"/>
<path d="M52.1752 4.52344C52.27 4.61568 52.3898 4.74965 52.5903 5.02464C52.4145 4.82622 52.2813 4.66414 52.1752 4.52344Z" fill="#36D78E"/>
<path d="M5.74266 0.237071C5.69003 0.218404 5.64399 0.20116 5.60996 0.185547C5.6917 0.210041 5.7338 0.225946 5.74266 0.237071Z" fill="#36D78E"/>
<path d="M1.45504 1.93156C1.64125 1.9501 1.82736 1.97104 2.01219 1.99073C1.83296 1.99647 1.65236 2.00335 1.47038 2.00899C1.45307 2.00959 1.43842 2.00787 1.42632 2.00865C1.39966 2.00771 1.38638 2.00724 1.38638 2.00724C1.05213 1.92222 0.804344 1.7213 0.862381 1.36527C0.889628 1.19921 0.979437 1.03654 1.09128 0.890266C1.14804 0.812953 1.37192 0.515602 1.49242 0.507812C1.49045 0.523362 1.4818 0.53748 1.46399 0.54767C0.954946 0.98521 0.595118 1.83291 1.45248 1.92906C1.37802 1.92164 1.55754 1.94115 1.45248 1.92906L1.45504 1.93156Z" fill="#36D78E"/>
<path d="M7.05927 2.83706C7.30145 2.9525 7.54344 3.07032 7.54344 3.07032C6.65666 2.82055 5.83107 2.48279 4.91046 2.30273C5.46908 2.3908 6.02023 2.49423 6.56557 2.60948C6.56557 2.60948 6.8105 2.7226 7.05799 2.83582C6.8105 2.7226 7.30017 2.95125 7.05799 2.83582L7.05927 2.83706Z" fill="#36D78E"/>
<path d="M9.45472 3.41251L9.125 3.25195C9.44144 3.37959 9.50263 3.41659 9.45472 3.41251Z" fill="#36D78E"/>
<path d="M9.02577 3.45091C8.53453 3.25826 8.03187 3.08203 8.03187 3.08203C8.29854 3.15387 8.56394 3.22686 8.82913 3.30223C8.86563 3.26026 9.3735 3.40902 9.4575 3.41317C9.69152 3.53071 9.92543 3.65067 10.1606 3.77187C9.98366 3.69237 9.6203 3.53904 9.47747 3.5076L10.0037 3.84686C10.0037 3.84686 9.52115 3.6401 9.02715 3.44976C8.53591 3.2571 9.52115 3.6401 9.02715 3.44976L9.02577 3.45091Z" fill="#36D78E"/>
<path d="M11.1723 4.1464C11.1205 4.14098 11.0543 4.12904 11.0128 4.13119C11.0084 4.10941 11.0694 4.11876 11.1723 4.1464Z" fill="#36D78E"/>
<path d="M30.1997 15.656L29.4609 15.0426L29.2859 14.7949C29.5915 15.0796 29.8969 15.3667 30.1997 15.656Z" fill="#36D78E"/>
<path d="M34.7408 19.8987C34.7084 19.8447 34.7172 19.8281 34.7567 19.8392C34.7608 19.8682 34.7572 19.8896 34.7408 19.8987Z" fill="#36D78E"/>
<path d="M43.5568 19.9219C43.5763 19.7484 43.5934 19.6 43.6057 19.377C43.6085 19.5897 43.5863 19.7631 43.5568 19.9219Z" fill="#36D78E"/>
<path d="M34.4162 19.6602L34.7895 20.0782L34.4645 19.8398L34.4162 19.6602Z" fill="#36D78E"/>
<path d="M43.6373 18.7904C43.6607 18.6181 43.6802 18.4446 43.6997 18.2734L43.6949 18.6638C43.7129 18.9889 43.6512 19.1188 43.6373 18.7904Z" fill="#36D78E"/>
<path d="M43.3459 16.8579C43.2927 16.6686 43.238 16.4804 43.238 16.4804L43.2533 15.9727C43.3219 16.3945 43.3878 16.8161 43.4497 17.2388C43.4497 17.2388 43.3978 17.0483 43.3459 16.8579C43.2927 16.6686 43.3978 17.0483 43.3459 16.8579Z" fill="#36D78E"/>
<path d="M57.121 14.7676C57.605 15.8082 57.8139 16.8489 58.1138 17.9481C57.7897 16.9754 57.3896 15.6613 57.121 14.7676Z" fill="#36D78E"/>
<path d="M54.335 7.95274C54.1749 7.66956 54.0082 7.38496 53.8987 7.07593C53.8761 7.01145 53.8536 6.94457 53.85 6.87355C53.8443 6.72557 53.9774 6.76748 54.0843 6.76642C54.1822 7.03659 54.3443 7.39674 54.0403 6.8586C54.1408 7.22138 54.24 7.58533 54.3364 7.95159L54.335 7.95274Z" fill="#36D78E"/>
<path d="M51.7819 10.0032C51.5723 9.5368 51.3504 9.07603 51.1122 8.62191C51.248 8.84895 51.3826 9.07476 51.5156 9.30411C51.4054 8.91695 51.3073 8.65158 51.0631 8.11914C51.6376 9.10774 52.037 10.1286 51.7806 10.0019L51.7819 10.0032Z" fill="#36D78E"/>
<path d="M50.6333 7.42448C50.4602 7.2562 50.35 7.08652 50.3314 6.83594C50.3914 7.05672 50.5118 7.23638 50.6333 7.42448C50.5781 7.34083 50.6025 7.39456 50.6333 7.42448Z" fill="#36D78E"/>
<path d="M51.063 8.11977C50.925 7.88063 50.779 7.6436 50.6321 7.42578C50.8306 7.62378 50.9454 7.87293 51.063 8.11977C50.925 7.88063 51.0323 8.05741 51.063 8.11977Z" fill="#36D78E"/>
<path d="M53.4927 13.4426L53.0341 12.5241C53.0764 12.2553 52.4429 11.4268 52.4019 10.9844C52.781 11.7955 53.1354 12.6202 53.4927 13.4426Z" fill="#36D78E"/>
<path d="M47.0981 8.0781C47.0718 8.06996 47.0258 8.05033 46.9526 8.01172C47 8.0302 47.0484 8.05472 47.0981 8.0781Z" fill="#36D78E"/>
<path d="M47.1008 8.07743C47.3369 8.14699 45.9924 7.17224 47.6258 8.2304C48.1817 8.75094 48.7946 9.21941 49.3769 9.71564C49.9953 10.2443 50.5955 10.7905 51.1958 11.3342L50.8797 11.2294C50.2576 10.6646 49.6714 10.072 49.0478 9.51065C48.4615 8.98303 47.8467 8.43521 47.1008 8.07743C47.3369 8.14699 47.6033 8.31854 47.1008 8.07743Z" fill="#36D78E"/>
<path d="M44.3964 6.95349C44.6472 7.08244 44.9246 7.12461 45.2104 7.1875C45.34 7.21607 45.4612 7.25636 45.575 7.31202C45.6261 7.33664 45.8961 7.45425 45.8786 7.51972C45.8786 7.51972 45.4265 7.38011 45.3842 7.36901C45.1703 7.27862 44.9495 7.19637 44.7257 7.12124C44.648 7.09568 44.2989 7.04379 44.2781 6.96856C44.2736 6.94919 44.399 6.95358 44.3964 6.95349C44.1827 6.95081 44.6629 7.0902 44.3964 6.95349Z" fill="#36D78E"/>
<path d="M39.7251 11.5568C39.7292 11.9258 39.7468 12.2929 39.7213 12.6657C39.7018 12.9643 39.6129 13.2579 39.608 13.5581C39.5251 13.0975 39.4763 12.6175 39.5038 12.1343C39.5112 12.0263 39.4964 11.812 39.5809 11.7116C39.6188 11.6685 39.6853 12.0456 39.6871 12.0674C39.6603 11.5413 39.7034 10.7907 39.725 11.5592C39.7047 10.7919 39.7334 12.355 39.725 11.5592L39.7251 11.5568Z" fill="#36D78E"/>
<path d="M39.4419 20.4427C39.2604 20.1912 39.0803 19.9386 38.9029 19.6836L39.2245 19.9689C39.2951 20.1275 39.3685 20.2863 39.4419 20.4427Z" fill="#36D78E"/>
<path d="M31.4508 12.5078C31.8993 12.884 32.344 13.2612 32.7856 13.6432L32.2751 13.3393L31.4508 12.5078Z" fill="#36D78E"/>
<path d="M30.2633 11.7519C29.9569 11.514 29.6493 11.2773 29.6493 11.2773L30.1173 11.575C30.7357 12.0088 30.4688 11.9117 30.8716 12.2358C30.8716 12.2358 30.5667 11.9944 30.2633 11.7519C29.9569 11.514 30.5667 11.9944 30.2633 11.7519Z" fill="#36D78E"/>
<path d="M28.0548 10.101C28.3285 10.3221 28.602 10.5431 28.602 10.5431C28.1119 10.1715 27.6201 9.80338 27.1231 9.4375C27.2807 9.56078 27.3933 9.6128 27.5006 9.66462C27.5006 9.66462 27.7784 9.88226 28.0548 10.101C27.777 9.88334 28.3285 10.3221 28.0548 10.101Z" fill="#36D78E"/>
</g>
<defs>
<clipPath id="clip0_854_5623">
<rect width="59.02" height="23.608" fill="white" transform="matrix(-1 0 0 1 59.02 0)"/>
</clipPath>
</defs>
</svg>
