<svg preserveAspectRatio="none" width="100%" height="100%" overflow="visible" style="display: block;" viewBox="0 0 40 39" fill="none" xmlns="http://www.w3.org/2000/svg">
<g id="Frame" clip-path="url(#clip0_2020_1818)">
<path id="Vector" d="M39.5128 19.501C39.5128 22.0569 39.0094 24.5878 38.0313 26.9492C37.0532 29.3105 35.6195 31.4561 33.8122 33.2634C32.0049 35.0707 29.8594 36.5043 27.498 37.4824C25.1367 38.4606 22.6058 38.964 20.0499 38.964C17.4939 38.964 14.9631 38.4606 12.6017 37.4824C10.2404 36.5043 8.09478 35.0707 6.28748 33.2634C4.48018 31.4561 3.04655 29.3105 2.06844 26.9492C1.09034 24.5878 0.586914 22.0569 0.586914 19.501C0.586914 14.3391 2.63747 9.38866 6.28748 5.73865C9.93749 2.08864 14.888 0.0380859 20.0499 0.0380859C25.2118 0.0380859 30.1622 2.08864 33.8122 5.73865C37.4622 9.38866 39.5128 14.3391 39.5128 19.501Z" fill="var(--fill-0, #36D78E)"/>
<g id="Frame_2">
<path id="Vector_2" d="M21.458 11.6699L28.958 19.1699M28.958 19.1699L21.458 26.6699M28.958 19.1699H10.958" stroke="var(--stroke-0, black)" stroke-width="1.5" stroke-linecap="round" stroke-linejoin="round"/>
</g>
</g>
<defs>
<clipPath id="clip0_2020_1818">
<rect width="40" height="39" fill="white"/>
</clipPath>
</defs>
</svg>
