<svg preserveAspectRatio="none" width="100%" height="100%" overflow="visible" style="display: block;" viewBox="0 0 2863.69 2863.69" fill="none" xmlns="http://www.w3.org/2000/svg">
<g id="Vector" opacity="0.9" filter="url(#filter0_f_2034_1842)">
<path d="M1431.84 936C1300.34 936 1174.22 988.241 1081.23 1081.23C988.241 1174.22 936 1300.34 936 1431.84C936 1563.35 988.241 1689.47 1081.23 1782.46C1174.22 1875.45 1300.34 1927.69 1431.84 1927.69C1563.35 1927.69 1689.47 1875.45 1782.46 1782.46C1875.45 1689.47 1927.69 1563.35 1927.69 1431.84C1927.69 1300.34 1875.45 1174.22 1782.46 1081.23C1689.47 988.241 1563.35 936 1431.84 936ZM1707.1 1460.39C1701 1468.41 1692.54 1474.33 1682.91 1477.32L1605.03 1503.44C1581.23 1511.57 1559.57 1524.97 1541.66 1542.62C1523.86 1560.43 1510.45 1582.12 1502.47 1605.99L1475.86 1683.88C1472.29 1692.66 1466.44 1700.34 1458.93 1706.13C1450.9 1711.95 1441.28 1715.16 1431.36 1715.32C1421.39 1715.47 1411.67 1712.23 1403.79 1706.13C1395.74 1700.36 1389.66 1692.25 1386.37 1682.91L1360.73 1605.03C1352.76 1581.07 1339.29 1559.32 1321.4 1541.51C1303.51 1523.7 1281.69 1510.33 1257.69 1502.47L1180.29 1476.83C1170.95 1473.54 1162.85 1467.46 1157.07 1459.42C1151.04 1451.5 1147.81 1441.8 1147.88 1431.84C1147.95 1421.76 1151.16 1411.95 1157.07 1403.79C1162.63 1395.94 1170.62 1390.16 1179.81 1387.34L1257.69 1361.22C1281.77 1353.06 1303.74 1339.68 1322.03 1322.03C1339.93 1303.94 1353.33 1281.88 1361.22 1257.69L1387.34 1181.26C1390.24 1172.11 1395.79 1164.03 1403.3 1158.04C1411.02 1151.53 1420.78 1147.93 1430.88 1147.88C1440.47 1147.72 1449.9 1150.41 1457.97 1155.62C1466.48 1160.91 1472.96 1168.93 1476.35 1178.36L1502.47 1257.21C1510.6 1281.54 1524.14 1303.7 1542.14 1322.03C1560.32 1339.58 1582.11 1352.96 1605.99 1361.22L1683.88 1388.31C1693.13 1391.26 1701.14 1397.22 1706.61 1405.24C1712.26 1413.33 1715.3 1422.95 1715.32 1432.81C1715.27 1442.58 1712.42 1452.16 1707.1 1460.39Z" fill="var(--fill-0, #11D683)" fill-opacity="0.5"/>
</g>
<defs>
<filter id="filter0_f_2034_1842" x="0" y="0" width="2863.69" height="2863.69" filterUnits="userSpaceOnUse" color-interpolation-filters="sRGB">
<feFlood flood-opacity="0" result="BackgroundImageFix"/>
<feBlend mode="normal" in="SourceGraphic" in2="BackgroundImageFix" result="shape"/>
<feGaussianBlur stdDeviation="468" result="effect1_foregroundBlur_2034_1842"/>
</filter>
</defs>
</svg>
