<svg preserveAspectRatio="none" width="100%" height="100%" overflow="visible" style="display: block;" viewBox="0 0 1952.6 752.221" fill="none" xmlns="http://www.w3.org/2000/svg">
<path id="Vector" opacity="0.2" d="M145.701 106.338H248.226V0H250.05V106.338H352.576V0H354.4V106.338H456.924V0H458.75V106.338H559.692V0H561.518V106.338H664.043V0H665.868V106.338H768.391V0H770.216V106.338H872.741V0H874.567V106.338H975.509V0H977.335V106.338H1079.86V0H1081.68V106.338H1184.21V0H1186.03V106.338H1286.98V0H1288.8V106.338H1391.33V0H1393.15V106.338H1495.68V0H1497.51V106.338H1600.02V0H1601.85V106.338H1702.79V0H1704.62V106.338H1807.15V0H1808.96V106.338H1952.6V108.167H1808.96V181.75H1952.6V183.579H1808.96V257.165H1952.6V258.993H1808.96V332.578H1952.6V334.408H1808.96V407.993H1952.6V409.821H1808.96V483.406H1952.6V485.235H1808.96V558.819H1952.6V560.648H1808.96V634.234H1952.6V636.063H1808.96V752.221H1807.15V636.063H1704.62V752.221H1702.79V636.063H1601.85V752.221H1600.02V636.063H1497.51V752.221H1495.68V636.063H1393.15V752.221H1391.33V636.063H1288.8V752.221H1286.98V636.063H1186.03V752.221H1184.21V636.063H1081.68V752.221H1079.86V636.063H977.335V752.221H975.509V636.063H874.567V752.221H872.741V636.063H770.216V752.221H768.391V636.063H665.868V752.221H664.043V636.063H561.518V752.221H559.692V636.063H458.75V752.221H456.924V636.063H354.4V752.221H352.576V636.063H250.05V752.221H248.226V636.063H145.701V752.221H143.875V636.063H0V634.234H143.875V560.648H0V558.819H143.875V485.235H0V483.406H143.875V409.821H0V407.993H143.875V334.408H0V332.578H143.875V258.993H0V257.165H143.875V183.579H0V181.75H143.875V108.167H0V106.338H143.875V0H145.701V106.338ZM1704.62 560.648V634.234H1807.15V560.648H1704.62ZM145.701 634.234H248.226V560.648H145.701V634.234ZM250.05 634.234H352.576V560.648H250.05V634.234ZM354.4 634.234H456.924V560.648H354.4V634.234ZM458.75 634.234H559.692V560.648H458.75V634.234ZM561.518 634.234H664.043V560.648H561.518V634.234ZM665.868 634.234H768.391V560.648H665.868V634.234ZM770.216 634.234H872.741V560.648H770.216V634.234ZM874.567 634.234H975.509V560.648H874.567V634.234ZM977.335 634.234H1079.86V560.648H977.335V634.234ZM1081.68 634.234H1184.21V560.648H1081.68V634.234ZM1186.03 634.234H1286.98V560.648H1186.03V634.234ZM1288.8 634.234H1391.33V560.648H1288.8V634.234ZM1393.15 634.234H1495.68V560.648H1393.15V634.234ZM1497.51 634.234H1600.02V560.648H1497.51V634.234ZM1601.85 634.234H1702.79V560.648H1601.85V634.234ZM1704.62 485.235V558.819H1807.15V485.235H1704.62ZM145.701 558.819H248.226V485.235H145.701V558.819ZM250.05 558.819H352.576V485.235H250.05V558.819ZM354.4 558.819H456.924V485.235H354.4V558.819ZM458.75 558.819H559.692V485.235H458.75V558.819ZM561.518 558.819H664.043V485.235H561.518V558.819ZM665.868 558.819H768.391V485.235H665.868V558.819ZM770.216 558.819H872.741V485.235H770.216V558.819ZM874.567 558.819H975.509V485.235H874.567V558.819ZM977.335 558.819H1079.86V485.235H977.335V558.819ZM1081.68 558.819H1184.21V485.235H1081.68V558.819ZM1186.03 558.819H1286.98V485.235H1186.03V558.819ZM1288.8 558.819H1391.33V485.235H1288.8V558.819ZM1393.15 558.819H1495.68V485.235H1393.15V558.819ZM1497.51 558.819H1600.02V485.235H1497.51V558.819ZM1601.85 558.819H1702.79V485.235H1601.85V558.819ZM1704.62 409.821V483.406H1807.15V409.821H1704.62ZM145.701 483.406H248.226V409.821H145.701V483.406ZM250.05 483.406H352.576V409.821H250.05V483.406ZM354.4 483.406H456.924V409.821H354.4V483.406ZM458.75 483.406H559.692V409.821H458.75V483.406ZM561.518 483.406H664.043V409.821H561.518V483.406ZM665.868 483.406H768.391V409.821H665.868V483.406ZM770.216 483.406H872.741V409.821H770.216V483.406ZM874.567 483.406H975.509V409.821H874.567V483.406ZM977.335 483.406H1079.86V409.821H977.335V483.406ZM1081.68 483.406H1184.21V409.821H1081.68V483.406ZM1186.03 483.406H1286.98V409.821H1186.03V483.406ZM1288.8 483.406H1391.33V409.821H1288.8V483.406ZM1393.15 483.406H1495.68V409.821H1393.15V483.406ZM1497.51 483.406H1600.02V409.821H1497.51V483.406ZM1601.85 483.406H1702.79V409.821H1601.85V483.406ZM1704.62 334.408V407.993H1807.15V334.408H1704.62ZM145.701 407.993H248.226V334.408H145.701V407.993ZM250.05 407.993H352.576V334.408H250.05V407.993ZM354.4 407.993H456.924V334.408H354.4V407.993ZM458.75 407.993H559.692V334.408H458.75V407.993ZM561.518 407.993H664.043V334.408H561.518V407.993ZM665.868 407.993H768.391V334.408H665.868V407.993ZM770.216 407.993H872.741V334.408H770.216V407.993ZM874.567 407.993H975.509V334.408H874.567V407.993ZM977.335 407.993H1079.86V334.408H977.335V407.993ZM1081.68 407.993H1184.21V334.408H1081.68V407.993ZM1186.03 407.993H1286.98L1286.98 334.408H1186.03V407.993ZM1288.8 407.993H1391.33V334.408H1288.8L1288.8 407.993ZM1393.15 407.993H1495.68V334.408H1393.15V407.993ZM1497.51 407.993H1600.02V334.408H1497.51V407.993ZM1601.85 407.993H1702.79V334.408H1601.85V407.993ZM1704.62 258.993V332.578H1807.15V258.993H1704.62ZM145.701 332.578H248.226V258.993H145.701V332.578ZM250.05 332.578H352.576V258.993H250.05V332.578ZM354.4 332.578H456.924V258.993H354.4V332.578ZM458.75 332.578H559.692V258.993H458.75V332.578ZM561.518 332.578H664.043V258.993H561.518V332.578ZM665.868 332.578H768.391V258.993H665.868V332.578ZM770.216 332.578H872.741V258.993H770.216V332.578ZM874.567 332.578H975.509V258.993H874.567V332.578ZM977.335 332.578H1079.86V258.993H977.335V332.578ZM1081.68 332.578H1184.21V258.993H1081.68V332.578ZM1186.03 332.578H1286.98V258.993H1186.03V332.578ZM1288.8 332.578H1391.33V258.993H1288.8V332.578ZM1393.15 332.578H1495.68V258.993H1393.15V332.578ZM1497.51 332.578H1600.02V258.993H1497.51V332.578ZM1601.85 332.578H1702.79V258.993H1601.85V332.578ZM1704.62 183.579V257.165H1807.15V183.579H1704.62ZM145.701 257.165H248.226V183.579H145.701V257.165ZM250.05 257.165H352.576V183.579H250.05V257.165ZM354.4 257.165H456.924V183.579H354.4V257.165ZM458.75 257.165H559.692V183.579H458.75V257.165ZM561.518 257.165H664.043V183.579H561.518V257.165ZM665.868 257.165H768.391V183.579H665.868V257.165ZM770.216 257.165H872.741V183.579H770.216V257.165ZM874.567 257.165H975.509V183.579H874.567V257.165ZM977.335 257.165H1079.86V183.579H977.335V257.165ZM1081.68 257.165H1184.21V183.579H1081.68V257.165ZM1186.03 257.165H1286.98V183.579H1186.03V257.165ZM1288.8 257.165H1391.33V183.579H1288.8V257.165ZM1393.15 257.165H1495.68V183.579H1393.15V257.165ZM1497.51 257.165H1600.02V183.579H1497.51V257.165ZM1601.85 257.165H1702.79V183.579H1601.85V257.165ZM1704.62 108.167V181.75H1807.15V108.167H1704.62ZM145.701 181.75H248.226V108.167H145.701V181.75ZM250.05 181.75H352.576V108.167H250.05V181.75ZM354.4 181.75H456.924V108.167H354.4V181.75ZM458.75 181.75H559.692V108.167H458.75V181.75ZM561.518 181.75H664.043V108.167H561.518V181.75ZM665.868 181.75H768.391V108.167H665.868V181.75ZM770.216 181.75H872.741V108.167H770.216V181.75ZM874.567 181.75H975.509V108.167H874.567V181.75ZM977.335 181.75H1079.86V108.167H977.335V181.75ZM1081.68 181.75H1184.21V108.167H1081.68V181.75ZM1186.03 181.75H1286.98V108.167H1186.03V181.75ZM1288.8 181.75H1391.33V108.167H1288.8V181.75ZM1393.15 181.75H1495.68V108.167H1393.15V181.75ZM1497.51 181.75H1600.02V108.167H1497.51V181.75ZM1601.85 181.75H1702.79V108.167H1601.85V181.75Z" fill="url(#paint0_radial_2034_1663)"/>
<defs>
<radialGradient id="paint0_radial_2034_1663" cx="0" cy="0" r="1" gradientUnits="userSpaceOnUse" gradientTransform="translate(1264 107.5) rotate(163.721) scale(1307.42 3393.78)">
<stop stop-color="white" stop-opacity="0"/>
<stop offset="1" stop-color="#111827"/>
</radialGradient>
</defs>
</svg>
