<svg width="1814" height="1094" viewBox="0 0 1814 1094" fill="none" xmlns="http://www.w3.org/2000/svg">
<path d="M-56.2969 707.717H1959.14" stroke="#111827" stroke-width="1.68093"/>
<path d="M-56.2969 277.399H1959.14" stroke="#111827" stroke-width="1.68093"/>
<path d="M-56.2969 492.557H1959.14" stroke="#111827" stroke-width="1.68093"/>
<path d="M-56.2969 922.874H1959.14" stroke="#111827" stroke-width="1.68093"/>
<path d="M-56.2969 62.2383H1959.14" stroke="#111827" stroke-width="1.68093"/>
<path d="M-56.2969 600.137H1959.14" stroke="#111827" stroke-width="1.68093"/>
<path d="M-56.2969 1030.45H1959.14" stroke="#111827" stroke-width="1.68093"/>
<path d="M-56.2969 169.819H1959.14" stroke="#111827" stroke-width="1.68093"/>
<path d="M-56.2969 384.977H1959.14" stroke="#111827" stroke-width="1.68093"/>
<path d="M-56.2969 815.297H1959.14" stroke="#111827" stroke-width="1.68093"/>
<path d="M6.73438 -190.741V1365.8" stroke="#111827" stroke-width="1.68093"/>
<path d="M867.375 -190.741V1365.8" stroke="#111827" stroke-width="1.68093"/>
<path d="M437.055 -190.741V1365.8" stroke="#111827" stroke-width="1.68093"/>
<path d="M1297.69 -190.741L1297.69 1365.8" stroke="#111827" stroke-width="1.68093"/>
<path d="M1728.02 -190.741V1365.8" stroke="#111827" stroke-width="1.68093"/>
<path d="M221.898 -190.741V1365.8" stroke="#111827" stroke-width="1.68093"/>
<path d="M1082.53 -190.741V1365.8" stroke="#111827" stroke-width="1.68093"/>
<path d="M652.219 -190.741V1365.8" stroke="#111827" stroke-width="1.68093"/>
<path d="M1512.86 -190.741V1365.8" stroke="#111827" stroke-width="1.68093"/>
<path d="M114.32 -190.741L114.32 1365.8" stroke="#111827" stroke-width="1.68093"/>
<path d="M974.954 -190.741L974.953 1365.8" stroke="#111827" stroke-width="1.68093"/>
<path d="M544.633 -190.741V1365.8" stroke="#111827" stroke-width="1.68093"/>
<path d="M1405.27 -190.741V1365.8" stroke="#111827" stroke-width="1.68093"/>
<path d="M329.48 -190.741V1365.8" stroke="#111827" stroke-width="1.68093"/>
<path d="M1190.12 -190.741V1365.8" stroke="#111827" stroke-width="1.68093"/>
<path d="M759.797 -190.741V1365.8" stroke="#111827" stroke-width="1.68093"/>
<path d="M1620.43 -190.741V1365.8" stroke="#111827" stroke-width="1.68093"/>
<g opacity="0.7">
<path d="M1189.57 922.797H1082.61V1029.77H1189.57V922.797Z" fill="#111827"/>
<path d="M758.644 63.9951H651.676V169.435H758.644V63.9951Z" fill="#111827"/>
<path d="M1512.01 277.931H1405.04V383.371H1512.01V277.931Z" fill="#111827"/>
<path d="M650.152 170.963H543.184V276.403H650.152V170.963Z" fill="#111827"/>
<path d="M1512.01 170.963H1405.04V276.403H1512.01V170.963Z" fill="#111827"/>
<path d="M650.152 63.9951H543.184V169.435H650.152V63.9951Z" fill="#111827"/>
<path d="M544.71 922.797H437.742V1029.77H544.71V922.797Z" fill="#111827"/>
<path d="M544.71 1029.77H437.742V1138.26H544.71V1029.77Z" fill="#111827"/>
<path d="M329.246 815.83H222.277V922.798H329.246V815.83Z" fill="#111827"/>
<path d="M1405.04 -44.502H1298.07V62.4663H1405.04V-44.502Z" fill="#111827"/>
<path d="M1296.91 -46.0293H1189.94V62.4671H1296.91V-46.0293Z" fill="#111827"/>
<path d="M330.774 60.9385H222.277V170.963H330.774V60.9385Z" fill="#111827"/>
<path d="M222.278 -46.0293H113.781V60.939H222.278V-46.0293Z" fill="#111827"/>
<path d="M115.309 -44.502H6.8125V62.4663H115.309V-44.502Z" fill="#111827"/>
<path d="M329.246 276.402H222.277V384.899H329.246V276.402Z" fill="#111827"/>
<path d="M1620.5 815.83H1513.54V922.798H1620.5V815.83Z" fill="#111827"/>
<path d="M1727.48 922.797H1620.51V1029.77H1727.48V922.797Z" fill="#111827"/>
</g>
</svg>
