<svg preserveAspectRatio="none" width="100%" height="100%" overflow="visible" style="display: block;" viewBox="0 0 2015.43 1652.35" fill="none" xmlns="http://www.w3.org/2000/svg">
<g id="Group">
<path id="Vector" d="M0 898.458H2015.43" stroke="var(--stroke-0, #111827)" stroke-width="1.68093"/>
<path id="Vector_2" d="M0 1328.78H2015.43" stroke="var(--stroke-0, #111827)" stroke-width="1.68093"/>
<path id="Vector_3" d="M0 468.141H2015.43" stroke="var(--stroke-0, #111827)" stroke-width="1.68093"/>
<path id="Vector_4" d="M0 1543.94H2015.43" stroke="var(--stroke-0, #111827)" stroke-width="1.68093"/>
<path id="Vector_5" d="M0 683.298H2015.43" stroke="var(--stroke-0, #111827)" stroke-width="1.68093"/>
<path id="Vector_6" d="M0 1113.62H2015.43" stroke="var(--stroke-0, #111827)" stroke-width="1.68093"/>
<path id="Vector_7" d="M0 252.979H2015.43" stroke="var(--stroke-0, #111827)" stroke-width="1.68093"/>
<path id="Vector_8" d="M0 1651.51H2015.43" stroke="var(--stroke-0, #111827)" stroke-width="1.68093"/>
<path id="Vector_9" d="M0 790.878H2015.43" stroke="var(--stroke-0, #111827)" stroke-width="1.68093"/>
<path id="Vector_10" d="M0 1221.2H2015.43" stroke="var(--stroke-0, #111827)" stroke-width="1.68093"/>
<path id="Vector_11" d="M0 360.56H2015.43" stroke="var(--stroke-0, #111827)" stroke-width="1.68093"/>
<path id="Vector_12" d="M0 1436.35H2015.43" stroke="var(--stroke-0, #111827)" stroke-width="1.68093"/>
<path id="Vector_13" d="M0 575.718H2015.43" stroke="var(--stroke-0, #111827)" stroke-width="1.68093"/>
<path id="Vector_14" d="M0 1006.04H2015.43" stroke="var(--stroke-0, #111827)" stroke-width="1.68093"/>
<path id="Vector_15" d="M0 145.4H2015.43" stroke="var(--stroke-0, #111827)" stroke-width="1.68093"/>
<path id="Vector_16" d="M63.0312 7.47013e-07V1556.54" stroke="var(--stroke-0, #111827)" stroke-width="1.68093"/>
<path id="Vector_17" d="M923.672 7.47013e-07V1556.54" stroke="var(--stroke-0, #111827)" stroke-width="1.68093"/>
<path id="Vector_18" d="M493.352 7.47013e-07V1556.54" stroke="var(--stroke-0, #111827)" stroke-width="1.68093"/>
<path id="Vector_19" d="M1353.99 7.47013e-07L1353.99 1556.54" stroke="var(--stroke-0, #111827)" stroke-width="1.68093"/>
<path id="Vector_20" d="M1784.31 7.47013e-07V1556.54" stroke="var(--stroke-0, #111827)" stroke-width="1.68093"/>
<path id="Vector_21" d="M278.195 7.47013e-07V1556.54" stroke="var(--stroke-0, #111827)" stroke-width="1.68093"/>
<path id="Vector_22" d="M1138.83 7.47013e-07V1556.54" stroke="var(--stroke-0, #111827)" stroke-width="1.68093"/>
<path id="Vector_23" d="M708.516 7.47013e-07V1556.54" stroke="var(--stroke-0, #111827)" stroke-width="1.68093"/>
<path id="Vector_24" d="M1569.16 7.47013e-07V1556.54" stroke="var(--stroke-0, #111827)" stroke-width="1.68093"/>
<path id="Vector_25" d="M170.617 7.47013e-07L170.617 1556.54" stroke="var(--stroke-0, #111827)" stroke-width="1.68093"/>
<path id="Vector_26" d="M1031.25 7.47013e-07L1031.25 1556.54" stroke="var(--stroke-0, #111827)" stroke-width="1.68093"/>
<path id="Vector_27" d="M600.93 7.47013e-07V1556.54" stroke="var(--stroke-0, #111827)" stroke-width="1.68093"/>
<path id="Vector_28" d="M1461.57 7.47013e-07V1556.54" stroke="var(--stroke-0, #111827)" stroke-width="1.68093"/>
<path id="Vector_29" d="M1891.89 7.47013e-07V1556.54" stroke="var(--stroke-0, #111827)" stroke-width="1.68093"/>
<path id="Vector_30" d="M385.777 7.47013e-07V1556.54" stroke="var(--stroke-0, #111827)" stroke-width="1.68093"/>
<path id="Vector_31" d="M1246.41 7.47013e-07V1556.54" stroke="var(--stroke-0, #111827)" stroke-width="1.68093"/>
<path id="Vector_32" d="M816.094 7.47013e-07V1556.54" stroke="var(--stroke-0, #111827)" stroke-width="1.68093"/>
<path id="Vector_33" d="M1676.73 7.47013e-07V1556.54" stroke="var(--stroke-0, #111827)" stroke-width="1.68093"/>
<g id="Group_2" opacity="0.7">
<path id="Vector_34" d="M1245.87 1113.54H1138.9V1220.51H1245.87V1113.54Z" fill="var(--fill-0, #111827)"/>
<path id="Vector_35" d="M814.941 254.736H707.973V360.176H814.941V254.736Z" fill="var(--fill-0, #111827)"/>
<path id="Vector_36" d="M1568.3 468.672H1461.34V574.112H1568.3V468.672Z" fill="var(--fill-0, #111827)"/>
<path id="Vector_37" d="M706.449 361.704H599.48V467.144H706.449V361.704Z" fill="var(--fill-0, #111827)"/>
<path id="Vector_38" d="M1568.3 361.704H1461.34V467.144H1568.3V361.704Z" fill="var(--fill-0, #111827)"/>
<path id="Vector_39" d="M706.449 254.736H599.48V360.176H706.449V254.736Z" fill="var(--fill-0, #111827)"/>
<path id="Vector_40" d="M601.007 1113.54H494.039V1220.51H601.007V1113.54Z" fill="var(--fill-0, #111827)"/>
<path id="Vector_41" d="M601.007 1220.51H494.039V1329H601.007V1220.51Z" fill="var(--fill-0, #111827)"/>
<path id="Vector_42" d="M385.542 1006.57H278.574V1113.54H385.542V1006.57Z" fill="var(--fill-0, #111827)"/>
<path id="Vector_43" d="M1461.34 146.239H1354.37V253.208H1461.34V146.239Z" fill="var(--fill-0, #111827)"/>
<path id="Vector_44" d="M1354.37 23.9902H1247.4V130.958H1354.37V23.9902Z" fill="var(--fill-0, #111827)"/>
<path id="Vector_45" d="M1353.2 144.712H1246.23V253.208H1353.2V144.712Z" fill="var(--fill-0, #111827)"/>
<path id="Vector_46" d="M387.071 251.68H278.574V361.704H387.071V251.68Z" fill="var(--fill-0, #111827)"/>
<path id="Vector_47" d="M278.575 144.712H170.078V251.68H278.575V144.712Z" fill="var(--fill-0, #111827)"/>
<path id="Vector_48" d="M171.606 146.239H63.1094V253.208H171.606V146.239Z" fill="var(--fill-0, #111827)"/>
<path id="Vector_49" d="M709.504 37.7433H601.008V144.712H709.504V37.7433Z" fill="var(--fill-0, #111827)"/>
<path id="Vector_50" d="M385.542 467.144H278.574V575.64H385.542V467.144Z" fill="var(--fill-0, #111827)"/>
<path id="Vector_51" d="M1676.8 1006.57H1569.83V1113.54H1676.8V1006.57Z" fill="var(--fill-0, #111827)"/>
<path id="Vector_52" d="M1783.77 1113.54H1676.8V1220.51H1783.77V1113.54Z" fill="var(--fill-0, #111827)"/>
</g>
</g>
</svg>
