<svg width="60" height="24" viewBox="0 0 60 24" fill="none" xmlns="http://www.w3.org/2000/svg">
<g clip-path="url(#clip0_854_5586)">
<path d="M53.5393 17.3864C53.6576 17.1372 53.7773 16.8867 53.7773 16.8867C53.6051 17.228 53.4367 17.5654 53.293 17.8816C53.293 17.8816 53.4168 17.6346 53.5393 17.3864C53.6576 17.1372 53.4168 17.6346 53.5393 17.3864Z" fill="#36D78E"/>
<path d="M55.8672 13.3221C55.8967 13.2886 55.9395 13.2199 56.008 13.0938C55.9572 13.1628 55.9122 13.2437 55.8672 13.3221Z" fill="#36D78E"/>
<path d="M36.7497 6.58789L36.7383 6.69644C36.7766 6.6194 36.774 6.58945 36.7497 6.58789Z" fill="#36D78E"/>
<path d="M52.3164 19.191L52.3496 19.1467C52.4847 18.9436 52.4302 19.0212 52.3164 19.191Z" fill="#36D78E"/>
<path d="M52.3524 19.5739C52.4445 19.4024 52.552 19.2413 52.6703 19.0845C52.5244 19.2278 52.3729 19.3641 52.2451 19.5223C51.9014 19.8791 51.5445 19.286 51.3973 18.9955C51.4059 18.9447 51.5165 19.1079 51.5237 19.1184C51.6211 19.252 51.7196 19.412 51.8704 19.5065C51.9656 19.5621 52.0564 19.5445 52.1155 19.4799C52.1955 19.3703 52.2584 19.2695 52.3155 19.1895L52.164 19.3882C52.1726 19.3674 52.1797 19.3479 52.187 19.3285C52.8077 18.4694 53.371 17.5558 53.891 16.6089C53.9011 16.5942 53.9112 16.5794 53.9201 16.5683L53.7751 16.8857C54.163 16.1164 54.5577 15.3505 54.9275 14.5711L54.9304 14.6058C54.9545 14.5425 54.9762 14.4841 54.9952 14.4258C55.1727 14.0519 55.3447 13.6734 55.5127 13.2963C55.5018 13.4168 55.5459 13.3792 55.7408 12.9087C55.7533 13.0115 55.699 13.124 55.6679 13.214C55.6035 13.4036 55.5281 13.589 55.4487 13.7731C55.2324 14.2769 54.9954 14.7705 54.735 15.2518C54.8892 14.9605 55.035 14.5998 55.2833 14.3653C55.3466 14.3042 55.318 14.4217 55.3099 14.4497C55.2466 14.6681 55.1425 14.8736 55.0505 15.0774C55.3201 14.8097 55.535 13.9347 55.8664 13.3224C55.7819 13.4214 55.8342 13.1985 55.779 13.2293C55.9557 13.2712 56.8004 10.876 56.7024 10.7905L56.2916 12.0195C56.1943 12.041 56.3593 11.4741 56.4403 11.1384C57.1165 9.51084 57.7748 7.87544 58.2742 6.17588C58.5065 5.38678 58.7247 4.58616 58.8681 3.76772C59.002 3.00848 59.0453 2.21154 58.8461 1.40622C58.8949 1.41413 58.929 1.48624 58.9692 1.51249C59.0495 1.56495 59.0111 1.29955 59.0104 1.28515C58.9283 0.944364 58.5206 -0.354753 57.9533 0.0927416C57.952 0.0939873 57.9506 0.0952369 57.9493 0.0964846C57.2167 0.0835276 56.6183 0.560936 56.0775 0.875339C55.3188 1.31747 54.4364 1.63655 53.6165 2.00031C51.8324 2.78693 49.986 3.46877 48.0396 3.98709C48.0279 3.96587 48.0839 3.92426 48.2303 3.85548C47.2033 4.09909 47.6781 4.03091 47.8308 4.04363C47.5579 4.11439 47.2837 4.18402 47.0079 4.24768C46.7508 4.30829 46.6407 4.46953 46.5901 4.70078C46.5708 4.71947 46.5514 4.73817 46.5408 4.70851C46.5346 4.6919 46.5316 4.65475 46.5422 4.5895C46.557 4.5253 46.5792 4.4188 46.6766 4.30487C46.4514 4.50976 46.3201 5.05141 46.5726 5.35023C46.6242 5.85309 46.761 6.40105 47.0323 6.88425C47.0965 6.99977 47.1958 7.17655 47.3422 7.23033C47.4434 7.26766 47.5671 7.20567 47.6564 7.18454C47.8322 7.14238 48.0066 7.09907 48.181 7.05575C48.3431 7.0369 48.5063 7.0144 48.6743 7.00976C49.5198 6.76887 49.9514 6.60485 50.1872 6.4873C50.6639 6.33734 51.1361 6.17913 51.5999 6.0116C51.3902 6.11141 51.2698 6.1901 51.3417 6.23566C52.1978 5.80455 53.0983 5.43558 53.983 5.04433C52.5017 6.94387 50.836 8.71886 49.0639 10.3966C48.1642 11.2498 47.2241 12.0695 46.2251 12.8336C45.2743 13.5612 44.2494 14.2878 43.0359 14.6988C43.0301 14.6594 43.0189 14.6201 43.0159 14.5806C42.7532 12.964 42.9786 11.3713 43.1713 9.82783C43.3765 8.2022 43.719 6.60902 43.7978 4.95294C43.798 4.95774 43.7968 4.96139 43.7983 4.96494C43.8902 4.26124 43.8473 4.01761 43.8061 3.84481C43.7953 3.50275 43.7723 3.1599 43.6885 2.81316C43.823 3.11849 43.9284 3.37676 43.9877 3.68711C43.9359 3.17705 43.7905 2.68225 43.4845 2.20507C43.3498 1.89254 43.1726 1.59351 42.9536 1.32477C42.928 1.25957 42.9942 1.29812 42.9841 1.25282C42.7893 1.04092 42.5645 0.855284 42.3077 0.705614C41.4929 0.106748 40.4131 -0.0587462 39.567 0.227829C39.4302 0.242198 39.2888 0.331228 39.1795 0.386698C38.9768 0.489878 38.7853 0.607082 38.601 0.732449C38.2353 0.987886 37.9074 1.27926 37.5838 1.57409C36.8746 2.22358 36.164 2.87431 35.4729 3.54119C35.2956 3.67232 35.1739 3.75225 35.1181 3.76861C35.1108 3.81573 35.0762 3.88903 35.0209 3.97987C33.9905 4.97937 32.9358 5.94969 31.8382 6.89145C31.3344 7.09763 32.7268 6.00382 33.2413 5.39234C32.8231 5.77337 32.3927 6.14882 32.0012 6.55415C31.6522 6.91594 31.331 7.2984 30.9792 7.65789C30.6652 7.92595 30.269 8.31582 29.8818 8.69697C29.3182 9.17076 28.7436 9.63534 28.1564 10.0896C28.1938 10.0534 28.23 10.0184 28.2661 9.98117C27.9579 10.2287 27.6395 10.4583 27.2746 10.6405C26.9121 10.8153 26.615 11.072 26.3174 11.3142C26.5214 11.2074 26.7874 11.0731 27.0721 10.9059C26.3545 11.4235 25.6297 11.933 24.8895 12.4297C24.66 12.5662 24.5407 12.6088 24.6604 12.4533C24.0041 12.8967 23.5443 13.2479 23.3952 13.4092C23.0089 13.657 22.6185 13.9013 22.2252 14.1433C22.6488 13.7621 23.6983 13.0743 22.4846 13.733L21.4899 14.5029C21.2627 14.5697 19.501 15.5898 19.4924 15.4256C18.88 15.794 18.8172 15.8996 18.3288 16.211C17.8035 16.4179 17.4104 16.5698 16.8494 16.9762C18.2988 16.2649 19.7529 15.5643 21.1424 14.7758C21.1338 14.7941 21.092 14.8243 21.0358 14.8611C19.1373 15.9858 17.1853 17.057 15.1758 18.0437C14.9532 18.0936 15.5612 17.7143 15.6243 17.6184C14.146 18.285 14.201 18.497 12.8589 19.0195C14.7982 18.0281 12.0926 19.2841 11.36 19.461C12.2594 19.3756 13.0933 18.9933 13.8625 18.6686C11.7262 19.6501 9.49313 20.5076 7.12928 21.1137C5.95134 21.4154 4.74241 21.6545 3.50326 21.8178C2.88902 21.8981 2.24636 21.9132 1.63511 22.0006C1.17234 22.0672 1.46766 22.5448 1.69599 22.7819C2.11007 23.2048 2.79737 23.5666 3.38437 23.6027C3.77574 23.6275 4.1752 23.5595 4.55301 23.52C4.98983 23.4759 5.42355 23.4224 5.85148 23.3594C5.88115 23.3608 5.8948 23.3651 5.88834 23.3713C5.92017 23.3606 5.95868 23.3485 5.99718 23.3363C6.76595 23.2195 7.52282 23.0766 8.26641 22.9065C8.09505 22.9894 7.8177 23.0796 7.35478 23.1737C8.61518 23.035 9.83054 22.7271 10.9825 22.353C12.0786 21.9953 13.1859 21.5867 14.1327 21.013C14.1657 20.9986 14.2001 20.9854 14.2358 20.971C14.2929 20.9534 14.5844 20.817 14.6605 20.8637C14.6812 20.8762 14.4159 21.0272 14.4 21.0349C14.2001 21.1405 13.9971 21.2388 13.7914 21.3349C13.3693 21.5323 12.9399 21.7166 12.5208 21.9187C14.8251 21.1199 17.0014 20.1322 19.1174 19.0577C21.1847 18.0077 23.1922 16.8804 25.1301 15.6728C25.3699 15.5238 25.607 15.3725 25.8454 15.2225C25.7771 15.0158 26.2277 14.8211 26.7591 14.2932L27.1998 14.0903C27.0508 14.1592 27.2419 13.9423 27.1028 13.9639C29.1631 12.5658 31.1304 11.0722 32.9936 9.47664C32.7578 9.81167 32.4928 10.1249 32.196 10.4163C33.8339 8.86827 35.6106 7.44868 37.1618 5.82668C37.0777 5.99782 36.9252 6.14491 36.7996 6.28866C36.5637 6.5588 36.3168 6.82213 36.071 7.08181C35.6143 7.5651 35.1562 8.04965 34.6632 8.50297C35.0974 8.12139 35.5022 7.71079 35.9141 7.31076C36.0911 7.13998 36.2666 6.96807 36.4492 6.80431C36.505 6.75551 36.652 6.57617 36.7549 6.58941L36.7782 6.35189C38.0177 5.14565 36.7231 6.60252 37.2082 6.27684C37.6745 5.82685 38.2054 5.37703 38.552 4.83748C38.5923 4.7736 38.6442 4.69609 38.6378 4.61221C38.6356 4.59185 38.628 4.57169 38.6176 4.54922C38.5265 4.37456 38.651 4.23446 38.7436 4.10507C39.1138 3.73533 39.5178 3.30794 39.9635 2.91033C40.3733 2.58487 40.7542 2.2448 41.2401 1.99839C41.2478 2.05099 41.2527 2.10369 41.2603 2.15629C41.1933 2.03606 41.1093 2.42469 41.1001 2.46345C41.3282 2.78835 41.2766 3.27077 41.2518 3.59966C41.2323 3.86348 41.1911 4.12325 41.1539 4.38167C41.0536 5.04602 40.9505 5.70806 40.8611 6.37443C40.76 6.40198 40.9174 5.19495 40.8133 5.02795C40.7783 5.74169 40.6783 6.44327 40.6068 7.14988C40.5697 7.50562 40.5382 7.86359 40.5243 8.22453C40.5172 8.43146 40.4771 8.68518 40.5576 8.89745C40.446 9.82773 40.3058 10.753 40.2553 11.6968C40.2074 12.6056 40.2597 13.5602 40.635 14.4856C40.5436 14.2689 40.4641 14.0506 40.3912 13.8308C40.3632 13.7453 40.3252 13.5195 40.2224 13.4762C40.0037 13.3697 39.9813 12.9763 39.9456 12.8058C40.1066 13.6305 40.3288 14.6236 41.0447 15.3028C41.8152 16.0318 43.0083 16.4181 44.019 16.4803C44.2684 16.4896 44.5026 16.4586 44.7251 16.4064C45.782 16.229 46.6487 15.6401 47.4472 15.0945C47.4754 15.1248 47.4621 15.1877 47.4004 15.3172C47.9483 14.9809 48.5525 14.6378 48.9278 14.1406C49.2472 13.7173 49.7402 13.3866 50.1547 13.0441C49.827 13.3078 49.4967 13.5716 49.1647 13.8296C49.1892 13.8059 49.2139 13.7846 49.2384 13.7609C50.2565 12.9385 51.2099 12.0558 52.1286 11.1443C52.1149 11.2325 52.0295 11.3748 52.3116 11.085C52.6619 10.5045 53.2201 10.0309 53.7176 9.55821C54.2128 9.0904 54.7231 8.63286 55.1779 8.13401C55.0055 8.50288 54.8236 8.90092 54.6413 9.3194C54.5895 9.61439 54.4469 9.89451 54.3362 10.1663C54.1342 10.6564 53.9211 11.142 53.7053 11.6277C53.492 12.1085 53.2679 12.5849 53.0463 13.0613C52.9097 13.3556 52.7542 13.6482 52.6507 13.9606C52.8928 13.4295 53.1116 12.9833 53.4578 12.3417L53.5584 12.5196C52.9812 13.6991 53.3905 12.5291 52.9164 13.6942C53.2302 13.6064 53.7246 12.0692 54.1164 11.2385C54.0257 11.5661 53.8767 12.0074 53.6532 12.5331C53.7889 12.2496 53.9247 11.9661 54.0588 11.6791C53.8942 12.0405 53.7281 12.3983 53.5566 12.7564C53.5897 12.6819 53.6228 12.6075 53.6532 12.5331C53.3421 13.1784 53.0337 13.8235 52.6882 14.4519C52.6903 14.3749 52.6476 14.3837 52.5066 14.5772C52.0868 15.2298 51.6671 15.8825 51.3424 16.5883C51.1122 16.9255 51.1055 17.3919 51.1762 17.8413C51.1561 18.0306 51.1184 18.1821 51.15 18.384C51.2207 18.7085 51.3677 19.059 51.5705 19.3559C51.6347 19.4414 51.6961 19.5221 51.7865 19.5899C51.6101 19.4627 51.4906 19.283 51.3863 19.1136C51.2501 18.89 51.0908 18.6337 51.0561 18.3921L50.9719 18.2185C50.9774 18.2831 50.9824 18.3382 50.9918 18.3968C51.0645 18.7391 51.1896 19.1084 51.4396 19.4122C51.6683 19.689 52.0644 19.9143 52.3203 19.6398C52.3355 19.6201 52.3571 19.5893 52.3646 19.5746C52.372 19.5599 52.3571 19.5893 52.3646 19.5746L52.3524 19.5739ZM55.9551 7.34638C55.9551 7.34638 55.9616 7.34015 55.9668 7.33516C55.8926 7.51678 55.8199 7.70194 55.743 7.88365C55.7368 7.89468 55.7304 7.90332 55.7255 7.9131C55.8174 7.64676 55.8921 7.47474 55.9565 7.34754C55.9605 7.3438 55.8908 7.47598 55.9565 7.34754L55.9551 7.34638ZM14.2663 18.3914C14.9743 18.0531 14.7365 18.2152 15.106 18.0786C14.7963 18.2299 14.4838 18.379 14.1685 18.5258L14.2649 18.3902L14.2663 18.3914ZM40.393 13.0365C40.3279 12.4068 40.3573 11.7833 40.4156 11.1721C40.3636 11.8348 40.35 12.5106 40.4457 13.1957C40.4444 13.2895 40.4508 13.4058 40.4642 13.558C40.4642 13.558 40.4214 13.3491 40.3918 13.0378C40.4229 13.3503 40.3593 12.7265 40.3918 13.0378L40.393 13.0365ZM55.5254 8.01618C55.7121 7.66845 55.754 7.73307 55.7078 7.94015C55.6941 7.96586 55.6894 7.98045 55.6987 7.97891C55.6962 7.98381 55.6964 7.98861 55.6954 7.99465C55.4596 8.54717 55.2102 9.09534 54.9649 9.64218C55.1855 9.11422 55.3992 8.5805 55.5254 8.01618C55.7121 7.66845 55.4125 8.51516 55.5254 8.01618Z" fill="#36D78E"/>
<path d="M52.6719 19.0852C52.7675 18.993 52.8882 18.859 53.0901 18.584C52.9131 18.7824 52.7788 18.9445 52.6719 19.0852Z" fill="#36D78E"/>
<path d="M5.88761 23.3711C5.83458 23.3898 5.78822 23.407 5.75391 23.4226C5.83628 23.3981 5.87866 23.3822 5.88761 23.3711Z" fill="#36D78E"/>
<path d="M1.56664 21.6752C1.75424 21.6567 1.94176 21.6357 2.12796 21.6161C1.94737 21.6103 1.76539 21.6034 1.58211 21.5978C1.56459 21.5972 1.54985 21.599 1.53771 21.5982C1.51083 21.5991 1.4974 21.5996 1.4974 21.5996C1.16059 21.6845 0.910931 21.8855 0.969479 22.2415C0.996886 22.4076 1.0874 22.5702 1.20008 22.7165C1.25728 22.7938 1.48285 23.0912 1.60431 23.099C1.60229 23.0834 1.59361 23.0693 1.57567 23.0591C1.06271 22.6216 0.700164 21.7739 1.56405 21.6778C1.66984 21.6657 1.489 21.6851 1.56405 21.6778L1.56664 21.6752Z" fill="#36D78E"/>
<path d="M7.21197 20.7703C7.45593 20.6549 7.69978 20.5371 7.69978 20.5371C6.80625 20.7869 5.97439 21.1246 5.04688 21.3047C5.60964 21.2166 6.16501 21.1131 6.71449 20.9979C6.71449 20.9979 6.96124 20.8847 7.21068 20.7715C7.45464 20.6561 6.96124 20.8847 7.21068 20.7715L7.21197 20.7703Z" fill="#36D78E"/>
<path d="M9.62905 20.1956L9.29688 20.3562C9.61567 20.2285 9.67732 20.1915 9.62905 20.1956Z" fill="#36D78E"/>
<path d="M9.19282 20.1576C8.69785 20.3502 8.19141 20.5265 8.19141 20.5265C8.46013 20.4547 8.72747 20.3817 8.99472 20.3063C9.03153 20.3483 9.54321 20.1995 9.62783 20.1954C9.86361 20.0779 10.0993 19.9579 10.3363 19.8367C10.158 19.9162 9.79191 20.0695 9.64793 20.101L10.1783 19.7617C10.1783 19.7617 9.69197 19.9685 9.19421 20.1588C9.69197 19.9685 8.69924 20.3514 9.19421 20.1588L9.19282 20.1576Z" fill="#36D78E"/>
<path d="M11.3564 19.4609C11.3041 19.4663 11.2373 19.4782 11.1955 19.4762C11.1911 19.4979 11.2526 19.4886 11.3564 19.4609Z" fill="#36D78E"/>
<path d="M30.5302 7.95312L29.7857 8.56659L29.6094 8.81424C29.9174 8.52957 30.2252 8.2425 30.5302 7.95312Z" fill="#36D78E"/>
<path d="M35.1059 3.70898C35.0732 3.76299 35.0821 3.7795 35.1219 3.76851C35.1261 3.73953 35.1224 3.71802 35.1059 3.70898Z" fill="#36D78E"/>
<path d="M43.9883 3.68555C44.008 3.8591 44.0252 4.00748 44.0376 4.23055C44.0404 4.01777 44.0181 3.84432 43.9883 3.68555Z" fill="#36D78E"/>
<path d="M34.7773 3.94732L35.1535 3.5293L34.826 3.76779L34.7773 3.94732Z" fill="#36D78E"/>
<path d="M44.0664 4.81797C44.0901 4.99017 44.1097 5.16371 44.1293 5.33486L44.1244 4.94452C44.1425 4.61947 44.0804 4.48946 44.0664 4.81797Z" fill="#36D78E"/>
<path d="M43.7768 6.74812C43.7231 6.93743 43.668 7.12559 43.668 7.12559L43.6833 7.63331C43.7525 7.21157 43.819 6.78991 43.8813 6.36719C43.8813 6.36719 43.829 6.55765 43.7768 6.74812C43.829 6.55765 43.7231 6.93743 43.7768 6.74812Z" fill="#36D78E"/>
<path d="M57.6523 8.84065C58.14 7.79995 58.3505 6.75929 58.6526 5.66016C58.3262 6.63277 57.923 7.94688 57.6523 8.84065Z" fill="#36D78E"/>
<path d="M54.8483 15.6562C54.687 15.9393 54.519 16.224 54.4086 16.533C54.3859 16.5975 54.3632 16.6644 54.3595 16.7354C54.3539 16.8834 54.488 16.8415 54.5957 16.8426C54.6944 16.5723 54.8577 16.2122 54.5514 16.7504C54.6527 16.3875 54.7526 16.0236 54.8497 15.6573L54.8483 15.6562Z" fill="#36D78E"/>
<path d="M52.271 13.6051C52.0599 14.0715 51.8363 14.5322 51.5964 14.9864C51.7332 14.7594 51.8686 14.5335 52.0027 14.3042C51.8916 14.6914 51.7929 14.9568 51.5469 15.4891C52.1257 14.5006 52.5281 13.4797 52.2698 13.6064L52.271 13.6051Z" fill="#36D78E"/>
<path d="M51.1165 16.1836C50.9422 16.3518 50.8312 16.5215 50.8125 16.7721C50.8728 16.5513 50.9942 16.3717 51.1165 16.1836C51.0856 16.2135 51.061 16.2672 51.1165 16.1836Z" fill="#36D78E"/>
<path d="M51.5514 15.4883C51.4124 15.7274 51.2652 15.9644 51.1172 16.1823C51.3172 15.9842 51.4328 15.7351 51.5514 15.4883C51.5204 15.5506 51.4124 15.7274 51.5514 15.4883Z" fill="#36D78E"/>
<path d="M54.0014 10.166L53.5393 11.0845C53.582 11.3533 52.9437 12.1817 52.9023 12.6242C53.2843 11.8131 53.6415 10.9884 54.0014 10.166Z" fill="#36D78E"/>
<path d="M47.5566 15.5312C47.5301 15.5393 47.4838 15.559 47.4102 15.5976C47.4578 15.5792 47.5065 15.5546 47.5566 15.5312Z" fill="#36D78E"/>
<path d="M47.5577 15.5303C47.7956 15.4607 46.441 16.4354 48.0867 15.3773C48.6468 14.8567 49.2644 14.3882 49.8511 13.8921C50.4741 13.3633 51.0789 12.8172 51.6837 12.2734L51.3653 12.3783C50.7385 12.9431 50.1478 13.5357 49.5196 14.0971C48.9288 14.6246 48.3093 15.1725 47.5577 15.5303C48.064 15.2892 47.7956 15.4607 47.5577 15.5303Z" fill="#36D78E"/>
<path d="M44.8341 16.6541C45.0869 16.5251 45.3663 16.483 45.6543 16.4202C45.7849 16.3915 45.907 16.3512 46.0217 16.2956C46.0731 16.2709 46.3452 16.1534 46.3276 16.0879C46.3276 16.0879 45.872 16.2275 45.8295 16.2386C45.6139 16.329 45.3914 16.4112 45.1659 16.4864C45.0877 16.5119 44.7359 16.5638 44.715 16.639C44.7104 16.6584 44.8367 16.654 44.8341 16.6541C45.1027 16.5175 44.6189 16.6568 44.8341 16.6541Z" fill="#36D78E"/>
<path d="M40.1253 12.0521C40.1294 11.6831 40.1471 11.316 40.1215 10.9432C40.1018 10.6446 40.0123 10.351 40.0074 10.0508C39.9237 10.5114 39.8746 10.9914 39.9023 11.4746C39.9098 11.5825 39.8948 11.7969 39.9799 11.8973C40.0182 11.9404 40.0852 11.5633 40.0869 11.5415C40.06 12.0676 40.1035 12.8182 40.1252 12.0497C40.1337 11.2539 40.1047 12.8169 40.1252 12.0497L40.1253 12.0521Z" fill="#36D78E"/>
<path d="M39.8399 3.16406C39.657 3.41555 39.4755 3.66817 39.2969 3.92312L39.6209 3.63789C39.6921 3.47921 39.7659 3.32044 39.8399 3.16406Z" fill="#36D78E"/>
<path d="M31.7891 11.1002C32.2411 10.724 32.689 10.3468 33.134 9.96484L32.6197 10.2687L31.7891 11.1002Z" fill="#36D78E"/>
<path d="M30.5952 11.8551C30.2866 12.0929 29.9766 12.3296 29.9766 12.3296L30.4481 12.0319C31.0712 11.5981 30.8023 11.6952 31.208 11.3711C31.208 11.3711 30.9009 11.6125 30.5952 11.8551C30.9009 11.6125 30.2866 12.0929 30.5952 11.8551Z" fill="#36D78E"/>
<path d="M28.3685 13.5065C28.6442 13.2855 28.9199 13.0645 28.9199 13.0645C28.426 13.4361 27.9307 13.8042 27.4297 14.17C27.5885 14.0467 27.7021 13.9947 27.8102 13.9429C27.8102 13.9429 28.09 13.7253 28.3685 13.5065C28.6442 13.2855 28.0886 13.7242 28.3685 13.5065Z" fill="#36D78E"/>
</g>
<defs>
<clipPath id="clip0_854_5586">
<rect width="59.02" height="23.608" fill="white"/>
</clipPath>
</defs>
</svg>
