<svg preserveAspectRatio="none" width="100%" height="100%" overflow="visible" style="display: block;" viewBox="0 0 2606.81 1918.97" fill="none" xmlns="http://www.w3.org/2000/svg">
<g id="Group" opacity="0.3">
<path id="Vector" d="M1450.64 722.09C1450.64 918.436 1320.82 1077.61 1160.68 1077.61C1000.54 1077.61 1.01725e-05 388.943 1.01725e-05 192.596C1.01725e-05 -3.75045 1437.58 266.557 1597.72 266.557C1757.87 266.557 1450.64 525.743 1450.64 722.09Z" fill="url(#paint0_linear_2345_1478)"/>
<path id="Vector_2" d="M1563.26 1563.46C1563.26 1759.8 1433.44 1918.97 1273.3 1918.97C1113.16 1918.97 221.039 1873.21 221.039 1676.87C221.039 1480.51 286.983 1015.41 447.124 1015.41C607.266 1015.41 1563.26 1367.11 1563.26 1563.46Z" fill="url(#paint1_radial_2345_1478)"/>
<path id="Vector_3" d="M1892.19 722.628C2324.28 1112.88 2124.68 916.761 2495.8 906.881C2554.03 918.096 2652.86 918.629 2582.44 831.041C2494.43 721.555 2522.79 644.224 2412.79 524.939C2302.79 405.654 2235.79 284.462 2069.72 94.7415C1903.64 -94.9784 1890.87 61.4135 1703.64 46.5882C1516.41 31.7629 1601.81 55.3055 1343.48 330.582C1085.16 605.858 1460.1 332.376 1892.19 722.628Z" fill="var(--fill-0, #D9D9D9)"/>
<path id="Vector_4" d="M1484.26 1336.47C906.022 1404.55 1185.06 1383.54 948.046 1669.29C901.26 1705.72 835.76 1779.73 948.046 1784.44C1088.4 1790.32 1127.91 1862.6 1290.12 1858.4C1452.32 1854.2 1587.64 1883.61 1839.78 1883.61C2091.92 1883.61 1982.66 1770.99 2117.14 1639.88C2251.6 1508.77 2177.64 1557.51 2140.67 1181.82C2103.68 806.137 2062.5 1268.39 1484.26 1336.47Z" fill="var(--fill-0, #D9D9D9)"/>
</g>
<defs>
<linearGradient id="paint0_linear_2345_1478" x1="692.544" y1="290.931" x2="1298.52" y2="613.67" gradientUnits="userSpaceOnUse">
<stop stop-color="white"/>
<stop offset="1" stop-color="white" stop-opacity="0"/>
</linearGradient>
<radialGradient id="paint1_radial_2345_1478" cx="0" cy="0" r="1" gradientUnits="userSpaceOnUse" gradientTransform="translate(646.315 1571.8) rotate(-29.3932) scale(1036.03 1780.63)">
<stop stop-color="white"/>
<stop offset="1" stop-color="white" stop-opacity="0"/>
</radialGradient>
</defs>
</svg>
