<svg width="1321" height="521" viewBox="0 0 1321 521" fill="none" xmlns="http://www.w3.org/2000/svg">
<path opacity="0.2" d="M145.701 -33.6616H248.226V-140H250.05V-33.6616H352.576V-140H354.4V-33.6616H456.924V-140H458.75V-33.6616H559.692V-140H561.518V-33.6616H664.043V-140H665.868V-33.6616H768.391V-140H770.216V-33.6616H872.741V-140H874.567V-33.6616H975.509V-140H977.335V-33.6616H1079.86V-140H1081.68V-33.6616H1184.21V-140H1186.03V-33.6616H1286.98V-140H1288.8V-33.6616H1391.33V-140H1393.15V-33.6616H1495.68V-140H1497.51V-33.6616H1600.02V-140H1601.85V-33.6616H1702.79V-140H1704.62V-33.6616H1807.15V-140H1808.96V-33.6616H1952.6V-31.8331H1808.96V41.7501H1952.6V43.5786H1808.96V117.165H1952.6V118.993H1808.96V192.578H1952.6V194.408H1808.96V267.993H1952.6V269.821H1808.96V343.406H1952.6V345.234H1808.96V418.819H1952.6V420.648H1808.96V494.234H1952.6V496.062H1808.96V612.221H1807.15V496.062H1704.62V612.221H1702.79V496.062H1601.85V612.221H1600.02V496.062H1497.51V612.221H1495.68V496.062H1393.15V612.221H1391.33V496.062H1288.8V612.221H1286.98V496.062H1186.03V612.221H1184.21V496.062H1081.68V612.221H1079.86V496.062H977.335V612.221H975.509V496.062H874.567V612.221H872.741V496.062H770.216V612.221H768.391V496.062H665.868V612.221H664.043V496.062H561.518V612.221H559.692V496.062H458.75V612.221H456.924V496.062H354.4V612.221H352.576V496.062H250.05V612.221H248.226V496.062H145.701V612.221H143.875V496.062H0V494.234H143.875V420.648H0V418.819H143.875V345.234H0V343.406H143.875V269.821H0V267.993H143.875V194.408H0V192.578H143.875V118.993H0V117.165H143.875V43.5786H0V41.7501H143.875V-31.8331H0V-33.6616H143.875V-140H145.701V-33.6616ZM1704.62 420.648V494.234H1807.15V420.648H1704.62ZM145.701 494.234H248.226V420.648H145.701V494.234ZM250.05 494.234H352.576V420.648H250.05V494.234ZM354.4 494.234H456.924V420.648H354.4V494.234ZM458.75 494.234H559.692V420.648H458.75V494.234ZM561.518 494.234H664.043V420.648H561.518V494.234ZM665.868 494.234H768.391V420.648H665.868V494.234ZM770.216 494.234H872.741V420.648H770.216V494.234ZM874.567 494.234H975.509V420.648H874.567V494.234ZM977.335 494.234H1079.86V420.648H977.335V494.234ZM1081.68 494.234H1184.21V420.648H1081.68V494.234ZM1186.03 494.234H1286.98V420.648H1186.03V494.234ZM1288.8 494.234H1391.33V420.648H1288.8V494.234ZM1393.15 494.234H1495.68V420.648H1393.15V494.234ZM1497.51 494.234H1600.02V420.648H1497.51V494.234ZM1601.85 494.234H1702.79V420.648H1601.85V494.234ZM1704.62 345.234V418.819H1807.15V345.234H1704.62ZM145.701 418.819H248.226V345.234H145.701V418.819ZM250.05 418.819H352.576V345.234H250.05V418.819ZM354.4 418.819H456.924V345.234H354.4V418.819ZM458.75 418.819H559.692V345.234H458.75V418.819ZM561.518 418.819H664.043V345.234H561.518V418.819ZM665.868 418.819H768.391V345.234H665.868V418.819ZM770.216 418.819H872.741V345.234H770.216V418.819ZM874.567 418.819H975.509V345.234H874.567V418.819ZM977.335 418.819H1079.86V345.234H977.335V418.819ZM1081.68 418.819H1184.21V345.234H1081.68V418.819ZM1186.03 418.819H1286.98V345.234H1186.03V418.819ZM1288.8 418.819H1391.33V345.234H1288.8V418.819ZM1393.15 418.819H1495.68V345.234H1393.15V418.819ZM1497.51 418.819H1600.02V345.234H1497.51V418.819ZM1601.85 418.819H1702.79V345.234H1601.85V418.819ZM1704.62 269.821V343.406H1807.15V269.821H1704.62ZM145.701 343.406H248.226V269.821H145.701V343.406ZM250.05 343.406H352.576V269.821H250.05V343.406ZM354.4 343.406H456.924V269.821H354.4V343.406ZM458.75 343.406H559.692V269.821H458.75V343.406ZM561.518 343.406H664.043V269.821H561.518V343.406ZM665.868 343.406H768.391V269.821H665.868V343.406ZM770.216 343.406H872.741V269.821H770.216V343.406ZM874.567 343.406H975.509V269.821H874.567V343.406ZM977.335 343.406H1079.86V269.821H977.335V343.406ZM1081.68 343.406H1184.21V269.821H1081.68V343.406ZM1186.03 343.406H1286.98V269.821H1186.03V343.406ZM1288.8 343.406H1391.33V269.821H1288.8V343.406ZM1393.15 343.406H1495.68V269.821H1393.15V343.406ZM1497.51 343.406H1600.02V269.821H1497.51V343.406ZM1601.85 343.406H1702.79V269.821H1601.85V343.406ZM1704.62 194.408V267.993H1807.15V194.408H1704.62ZM145.701 267.993H248.226V194.408H145.701V267.993ZM250.05 267.993H352.576V194.408H250.05V267.993ZM354.4 267.993H456.924V194.408H354.4V267.993ZM458.75 267.993H559.692V194.408H458.75V267.993ZM561.518 267.993H664.043V194.408H561.518V267.993ZM665.868 267.993H768.391V194.408H665.868V267.993ZM770.216 267.993H872.741V194.408H770.216V267.993ZM874.567 267.993H975.509V194.408H874.567V267.993ZM977.335 267.993H1079.86V194.408H977.335V267.993ZM1081.68 267.993H1184.21V194.408H1081.68V267.993ZM1186.03 267.993H1286.98L1286.98 194.408H1186.03V267.993ZM1288.8 267.993H1391.33V194.408H1288.8L1288.8 267.993ZM1393.15 267.993H1495.68V194.408H1393.15V267.993ZM1497.51 267.993H1600.02V194.408H1497.51V267.993ZM1601.85 267.993H1702.79V194.408H1601.85V267.993ZM1704.62 118.993V192.578H1807.15V118.993H1704.62ZM145.701 192.578H248.226V118.993H145.701V192.578ZM250.05 192.578H352.576V118.993H250.05V192.578ZM354.4 192.578H456.924V118.993H354.4V192.578ZM458.75 192.578H559.692V118.993H458.75V192.578ZM561.518 192.578H664.043V118.993H561.518V192.578ZM665.868 192.578H768.391V118.993H665.868V192.578ZM770.216 192.578H872.741V118.993H770.216V192.578ZM874.567 192.578H975.509V118.993H874.567V192.578ZM977.335 192.578H1079.86V118.993H977.335V192.578ZM1081.68 192.578H1184.21V118.993H1081.68V192.578ZM1186.03 192.578H1286.98V118.993H1186.03V192.578ZM1288.8 192.578H1391.33V118.993H1288.8V192.578ZM1393.15 192.578H1495.68V118.993H1393.15V192.578ZM1497.51 192.578H1600.02V118.993H1497.51V192.578ZM1601.85 192.578H1702.79V118.993H1601.85V192.578ZM1704.62 43.5786V117.165H1807.15V43.5786H1704.62ZM145.701 117.165H248.226V43.5786H145.701V117.165ZM250.05 117.165H352.576V43.5786H250.05V117.165ZM354.4 117.165H456.924V43.5786H354.4V117.165ZM458.75 117.165H559.692V43.5786H458.75V117.165ZM561.518 117.165H664.043V43.5786H561.518V117.165ZM665.868 117.165H768.391V43.5786H665.868V117.165ZM770.216 117.165H872.741V43.5786H770.216V117.165ZM874.567 117.165H975.509V43.5786H874.567V117.165ZM977.335 117.165H1079.86V43.5786H977.335V117.165ZM1081.68 117.165H1184.21V43.5786H1081.68V117.165ZM1186.03 117.165H1286.98V43.5786H1186.03V117.165ZM1288.8 117.165H1391.33V43.5786H1288.8V117.165ZM1393.15 117.165H1495.68V43.5786H1393.15V117.165ZM1497.51 117.165H1600.02V43.5786H1497.51V117.165ZM1601.85 117.165H1702.79V43.5786H1601.85V117.165ZM1704.62 -31.8331V41.7501H1807.15V-31.8331H1704.62ZM145.701 41.7501H248.226V-31.8331H145.701V41.7501ZM250.05 41.7501H352.576V-31.8331H250.05V41.7501ZM354.4 41.7501H456.924V-31.8331H354.4V41.7501ZM458.75 41.7501H559.692V-31.8331H458.75V41.7501ZM561.518 41.7501H664.043V-31.8331H561.518V41.7501ZM665.868 41.7501H768.391V-31.8331H665.868V41.7501ZM770.216 41.7501H872.741V-31.8331H770.216V41.7501ZM874.567 41.7501H975.509V-31.8331H874.567V41.7501ZM977.335 41.7501H1079.86V-31.8331H977.335V41.7501ZM1081.68 41.7501H1184.21V-31.8331H1081.68V41.7501ZM1186.03 41.7501H1286.98V-31.8331H1186.03V41.7501ZM1288.8 41.7501H1391.33V-31.8331H1288.8V41.7501ZM1393.15 41.7501H1495.68V-31.8331H1393.15V41.7501ZM1497.51 41.7501H1600.02V-31.8331H1497.51V41.7501ZM1601.85 41.7501H1702.79V-31.8331H1601.85V41.7501Z" fill="url(#paint0_radial_666_2384)"/>
<defs>
<radialGradient id="paint0_radial_666_2384" cx="0" cy="0" r="1" gradientUnits="userSpaceOnUse" gradientTransform="translate(1264 -32.4999) rotate(163.721) scale(1307.42 3393.78)">
<stop stop-color="white" stop-opacity="0"/>
<stop offset="1" stop-color="#111827"/>
</radialGradient>
</defs>
</svg>
